<?xml version="1.0" encoding="UTF-8"?>
<svg width="246px" height="94px" viewBox="0 0 246 94" version="1.1" xmlns="http://www.w3.org/2000/svg" xmlns:xlink="http://www.w3.org/1999/xlink">
    <!-- Generator: Sketch 46.2 (44496) - http://www.bohemiancoding.com/sketch -->
    <title>logo/logo-e-id-dk-nemid</title>
    <desc>Created with Sketch.</desc>
    <defs>
        <polygon id="path-1" points="25.062 0.4009 25.062 29.5009 0.9512 29.5009 0.9512 0.4009 25.062 0.4009"></polygon>
        <polygon id="path-3" points="2.71050543e-20 0.2351 2.71050543e-20 29.7501 24.1946 29.7501 24.1946 0.2351"></polygon>
    </defs>
    <g id="Symbols" stroke="none" stroke-width="1" fill="none" fill-rule="evenodd">
        <g id="logo/logo-e-id-dk-nemid">
            <rect id="Placeholder" x="0" y="0" width="246" height="96"></rect>
            <g id="Page-1" transform="translate(55.000000, 32.000000)">
                <g id="Group-3" transform="translate(102.000000, 0.806600)" fill="#000000">
                    <path d="M0.1401,28.6279 C0.1401,29.3769 0.6811,29.7499 1.2211,29.7499 C1.7611,29.7499 2.3021,29.3769 2.3021,28.6279 L2.3021,1.3159 C2.3021,0.5669 1.7611,0.1929 1.2211,0.1929 C0.6811,0.1929 0.1401,0.5669 0.1401,1.3159 L0.1401,28.6279 Z" id="Fill-1"></path>
                </g>
                <g id="Group-6" transform="translate(111.000000, 0.806600)">
                    <mask id="mask-2" fill="white">
                        <use xlink:href="#path-1"></use>
                    </mask>
                    <g id="Clip-5"></g>
                    <path d="M10.0552,27.4219 L4.1932,27.4219 C3.3632,27.4219 3.1132,27.0899 3.1132,26.1759 L3.1132,3.7269 C3.1132,2.8129 3.3632,2.4799 4.1932,2.4799 L9.7652,2.4799 C18.6182,2.4799 22.8182,7.6759 22.8182,14.9509 C22.8182,22.4339 18.1612,27.4219 10.0552,27.4219 M10.1802,0.4009 L3.5292,0.4009 C1.7832,0.4009 0.9512,1.3159 0.9512,3.1869 L0.9512,26.7159 C0.9512,28.5859 1.7832,29.5009 3.5292,29.5009 L9.8062,29.5009 C19.3262,29.5009 25.0622,23.4319 25.0622,14.7429 C25.0622,6.0129 19.4512,0.4009 10.1802,0.4009" id="Fill-4" fill="#000000" mask="url(#mask-2)"></path>
                </g>
                <g id="Group-9" transform="translate(0.000000, 0.806600)">
                    <mask id="mask-4" fill="white">
                        <use xlink:href="#path-3"></use>
                    </mask>
                    <g id="Clip-8"></g>
                    <path d="M2.0786,3.7271 C2.0786,2.9781 2.2866,2.8121 2.5776,2.8121 C2.8686,2.8121 3.1176,3.2691 3.2426,3.4361 L19.3306,27.8381 C19.7046,28.3791 20.3286,29.2931 21.7836,29.2931 C23.3636,29.2931 24.1946,28.1711 24.1946,26.4671 L24.1946,1.3571 C24.1946,0.6091 23.6956,0.2351 23.1556,0.2351 C22.6146,0.2351 22.1156,0.6091 22.1156,1.3571 L22.1156,26.1761 C22.1156,26.9241 21.9086,27.0901 21.6176,27.0901 C21.3266,27.0901 21.0766,26.6331 20.9526,26.4671 L4.8636,2.0641 C4.4896,1.5231 3.8666,0.6091 2.4116,0.6091 C0.8316,0.6091 -0.0004,1.7311 -0.0004,3.4361 L-0.0004,28.6281 C-0.0004,29.3771 0.4986,29.7501 1.0386,29.7501 C1.5796,29.7501 2.0786,29.3771 2.0786,28.6281 L2.0786,3.7271 Z" id="Fill-7" fill="#000000" mask="url(#mask-4)"></path>
                </g>
                <path d="M54.3755,29.4345 C54.3755,30.1835 54.8745,30.5565 55.4145,30.5565 C55.9555,30.5565 56.4535,30.1835 56.4535,29.4345 L56.4535,4.3255 C56.4535,3.5775 56.6205,3.4115 56.9115,3.4115 C57.2025,3.4115 57.4935,3.8685 57.6185,4.0345 L66.5975,16.6725 C66.8465,17.0465 67.1375,17.2125 67.5115,17.2125 C67.8865,17.2125 68.1775,17.0465 68.4255,16.6725 L77.4885,4.0345 C77.6125,3.8685 77.9035,3.4115 78.1945,3.4115 C78.4855,3.4115 78.6515,3.5775 78.6515,4.3255 L78.6515,29.4345 C78.6515,30.1835 79.1515,30.5565 79.6915,30.5565 C80.2315,30.5565 80.7305,30.1835 80.7305,29.4345 L80.7305,3.9515 C80.7305,2.2475 79.9405,1.2075 78.3615,1.2075 C76.9065,1.2075 76.3235,2.0385 75.8665,2.6625 L67.5535,14.5105 L59.2395,2.6625 C58.8235,2.0805 58.2415,1.2075 56.7865,1.2075 C55.2065,1.2075 54.3755,2.3305 54.3755,4.0345 L54.3755,29.4345 Z" id="Fill-10" fill="#000000"></path>
                <path d="M40.9873,15.0068 C41.3953,15.4148 42.0923,15.3938 42.4713,15.0148 C42.9063,14.5798 42.7813,13.9158 42.3643,13.4978 L34.1723,4.7828 C33.7143,4.2838 33.5483,4.0758 33.5483,3.7848 C33.5483,3.4938 33.7563,3.2858 34.2133,3.2858 L46.9343,3.2858 C47.6823,3.2448 48.0563,2.7878 48.0563,2.2468 C48.0563,1.7068 47.6823,1.2078 46.9343,1.2078 L33.6313,1.2078 C32.1763,1.2078 31.1783,1.9558 31.1783,3.2448 C31.1783,4.4498 32.0513,5.4068 32.7993,6.1958 L40.9873,15.0068 Z" id="Fill-12" fill="#000000"></path>
                <path d="M49.395,26.2695 C49.756,25.6515 49.598,25.0665 49.105,24.7425 C48.653,24.4465 48.015,24.5105 47.62,25.1095 C47.132,25.7345 45.006,28.7285 40.249,28.7285 C36.508,28.7285 32.434,26.5155 32.434,21.7855 C32.434,17.6175 36.499,15.7955 37.232,15.4555 C37.933,15.1295 38.056,14.5265 37.793,14.0315 C37.541,13.5535 37.028,13.2995 36.326,13.5995 C35.229,13.9725 30.264,16.2445 30.264,21.8685 C30.264,27.3975 34.712,30.8065 39.992,30.8065 C44.84,30.8065 48.081,28.5205 49.395,26.2695" id="Fill-14" fill="#000000"></path>
            </g>
        </g>
    </g>
</svg>