<?xml version="1.0" encoding="UTF-8"?>
<svg width="246px" height="94px" viewBox="0 0 246 94" version="1.1" xmlns="http://www.w3.org/2000/svg" xmlns:xlink="http://www.w3.org/1999/xlink">
    <!-- Generator: Sketch 46.2 (44496) - http://www.bohemiancoding.com/sketch -->
    <title>logo/logo-e-id-no-bankid</title>
    <desc>Created with Sketch.</desc>
    <defs>
        <polygon id="path-1" points="10.7702517 4 0.180665517 4 0.180665517 0.18056 10.7702517 0.18056 10.7702517 4"></polygon>
        <polygon id="path-3" points="10.9678643 4 7.85714286e-05 4 7.85714286e-05 0.18056 10.9678643 0.18056 10.9678643 4"></polygon>
        <polygon id="path-5" points="7.85714286e-05 0.138 10.9678643 0.138 10.9678643 3.957 7.85714286e-05 3.957"></polygon>
        <polygon id="path-7" points="0.180665517 0.138 10.7702517 0.138 10.7702517 3.957 0.180665517 3.957 0.180665517 0.138"></polygon>
    </defs>
    <g id="Symbols" stroke="none" stroke-width="1" fill="none" fill-rule="evenodd">
        <g id="logo/logo-e-id-no-bankid">
            <rect id="Placeholder" x="0" y="0" width="246" height="96"></rect>
            <g id="Logo-bankID" transform="translate(43.000000, 35.000000)">
                <path d="M24.4456265,8 L14.5543735,8 C14.248621,8 14,8.19794721 14,8.44176791 L14,10.5582321 C14,10.8017386 14.248621,11 14.5543735,11 L24.4456265,11 C24.751379,11 25,10.8017386 25,10.5582321 L25,8.44176791 C25,8.19794721 24.751379,8 24.4456265,8" id="Fill-1" fill="#0076BF"></path>
                <path d="M24.4456265,14 L14.5543735,14 C14.248621,14 14,14.1982614 14,14.4417679 L14,16.5582321 C14,16.8017386 14.248621,17 14.5543735,17 L24.4456265,17 C24.751379,17 25,16.8017386 25,16.5582321 L25,14.4417679 C25,14.1982614 24.751379,14 24.4456265,14" id="Fill-3" fill="#0076BF"></path>
                <g id="Group-7" transform="translate(28.000000, 21.000000)">
                    <mask id="mask-2" fill="white">
                        <use xlink:href="#path-1"></use>
                    </mask>
                    <g id="Clip-6"></g>
                    <path d="M10.2365621,0.18056 L0.714355172,0.18056 C0.420010345,0.18056 0.180665517,0.43296 0.180665517,0.74296 L0.180665517,3.43776 C0.180665517,3.74776 0.420010345,4.00016 0.714355172,4.00016 L10.2365621,4.00016 C10.5309069,4.00016 10.7702517,3.74776 10.7702517,3.43776 L10.7702517,0.74296 C10.7702517,0.43296 10.5309069,0.18056 10.2365621,0.18056" id="Fill-5" fill="#0076BF" mask="url(#mask-2)"></path>
                </g>
                <g id="Group-10" transform="translate(0.000000, 21.000000)">
                    <mask id="mask-4" fill="white">
                        <use xlink:href="#path-3"></use>
                    </mask>
                    <g id="Clip-9"></g>
                    <path d="M10.4151143,0.18056 L0.552828571,0.18056 C0.247971429,0.18056 7.85714286e-05,0.43296 7.85714286e-05,0.74296 L7.85714286e-05,3.43776 C7.85714286e-05,3.74776 0.247971429,4.00016 0.552828571,4.00016 L10.4151143,4.00016 C10.7195786,4.00016 10.9678643,3.74776 10.9678643,3.43776 L10.9678643,0.74296 C10.9678643,0.43296 10.7195786,0.18056 10.4151143,0.18056" id="Fill-8" fill="#0076BF" mask="url(#mask-4)"></path>
                </g>
                <path d="M38.4456662,8 L28.5543338,8 C28.2486032,8 28,8.19794721 28,8.44208211 L28,10.5582321 C28,10.8017386 28.2486032,11 28.5551218,11 L38.4456662,11 C38.7513968,11 39,10.8017386 39,10.5582321 L39,8.44176791 C39,8.19794721 38.7513968,8 38.4456662,8" id="Fill-11" fill="#0076BF"></path>
                <path d="M10.4456265,14 L0.554373522,14 C0.248620961,14 0,14.1982614 0,14.4417679 L0,16.5582321 C0,16.8017386 0.248620961,17 0.554373522,17 L10.4456265,17 C10.750985,17 11,16.8017386 11,16.5582321 L11,14.4417679 C11,14.1982614 10.750985,14 10.4456265,14" id="Fill-13" fill="#0076BF"></path>
                <g id="Group-17">
                    <mask id="mask-6" fill="white">
                        <use xlink:href="#path-5"></use>
                    </mask>
                    <g id="Clip-16"></g>
                    <path d="M10.4151143,0.1378 L0.552828571,0.1378 C0.247971429,0.1378 7.85714286e-05,0.3902 7.85714286e-05,0.7006 L7.85714286e-05,3.3946 C7.85714286e-05,3.7046 0.247971429,3.957 0.552828571,3.957 L10.4151143,3.957 C10.7195786,3.957 10.9678643,3.7046 10.9678643,3.3946 L10.9678643,0.7006 C10.9678643,0.3902 10.7195786,0.1378 10.4151143,0.1378" id="Fill-15" fill="#0076BF" mask="url(#mask-6)"></path>
                </g>
                <g id="Group-20" transform="translate(28.000000, 0.000000)">
                    <mask id="mask-8" fill="white">
                        <use xlink:href="#path-7"></use>
                    </mask>
                    <g id="Clip-19"></g>
                    <path d="M10.2365621,0.1378 L0.714355172,0.1378 C0.420010345,0.1378 0.180665517,0.3902 0.180665517,0.7006 L0.180665517,3.3946 C0.180665517,3.7046 0.420010345,3.957 0.714355172,3.957 L10.2365621,3.957 C10.5309069,3.957 10.7702517,3.7046 10.7702517,3.3946 L10.7702517,0.7006 C10.7702517,0.3902 10.5309069,0.1378 10.2365621,0.1378" id="Fill-18" fill="#0076BF" mask="url(#mask-8)"></path>
                </g>
                <path d="M62.877436,13.786176 C62.877436,13.0958478 62.6350453,12.5170313 62.1362942,12.016907 C61.639431,11.522004 61.0519544,11.2810791 60.3417722,11.2810791 L52.7532809,11.2807061 C52.6128302,11.2807061 52.4988083,11.3825211 52.4988083,11.5212581 L52.4980532,21.3659871 C52.4980532,21.504724 52.612075,21.606539 52.7525257,21.606539 L60.3417722,21.5916211 C61.053087,21.5916211 61.6401861,21.3506962 62.1374269,20.8546743 C62.6350453,20.3549229 62.877436,19.7764794 62.877436,19.0865241 L62.877436,13.786176 Z M64.5862529,9.59311288 C65.753655,10.7466435 66.3452848,12.1571358 66.3452848,13.786176 L66.3452848,19.050721 C66.3452848,20.6786425 65.753655,22.1253108 64.5862529,23.2795873 C63.4184733,24.4331179 61.9901802,24.9824714 60.3417722,24.9824714 L49.5085675,25 C49.2276661,25 49,24.7751119 49,24.4980109 L49.006796,1.50721034 C49.006796,1.22973645 49.2344621,1.00484833 49.5153635,1.00484833 L51.9660773,1.00484833 C52.2469787,1.00484833 52.4746448,1.22973645 52.4746448,1.50721034 L52.4746448,7.59858279 C52.4746448,7.73731974 52.588289,7.85517156 52.7287397,7.85517156 L60.3417722,7.85517156 C61.9909353,7.85517156 63.4188508,8.43995525 64.5862529,9.59311288 L64.5862529,9.59311288 Z M157.45513,10.2416708 C157.45513,6.48197414 155.358941,4.41098956 151.552802,4.41098956 L144.912353,4.41061661 C144.771902,4.41061661 144.658258,4.52324714 144.658258,4.66161114 L144.658258,21.286176 C144.658258,21.424913 144.771902,21.5371706 144.912353,21.5371706 L151.552425,21.5371706 C155.414064,21.5371706 157.45513,19.531452 157.45513,15.7490055 L157.45513,10.2416708 Z M161,10.495276 L161,15.490552 C161,21.6225758 157.602377,24.9776231 151.432739,24.9776231 L141.698977,24.9776231 C141.418453,24.9776231 141.190409,24.752362 141.190409,24.4748881 L141.190409,1.50236201 C141.190409,1.22488812 141.418453,1 141.698977,1 L151.376106,1.00223769 C157.49213,1.00223769 161,4.45313277 161,10.495276 L161,10.495276 Z M136.555536,1 L134.1052,1 C133.824298,1 133.596255,1.22488812 133.596255,1.50236201 L133.596255,24.4748881 C133.596255,24.752362 133.824298,24.9776231 134.1052,24.9776231 L136.555536,24.9776231 C136.83606,24.9776231 137.064104,24.752362 137.064104,24.4748881 L137.064104,1.50236201 C137.064104,1.22488812 136.83606,1 136.555536,1 L136.555536,1 Z M82.6689039,18.3794132 C82.6689039,18.2406763 82.5556372,18.1284187 82.4151865,18.1284187 L74.0051341,18.1284187 C73.0287751,18.1284187 72.2404389,18.9149677 72.2661127,19.8853804 C72.2914089,20.8285679 73.1227865,21.5576827 74.0780023,21.5576827 L82.4151865,21.5576827 C82.5552597,21.5576827 82.6689039,21.4558677 82.6689039,21.3171308 L82.6689039,18.3794132 Z M84.3773433,9.59273993 C85.5432352,10.7455246 86.1344874,12.1560169 86.1344874,13.786176 L86.1341098,24.0034809 C86.1341098,24.5438836 85.6644305,24.9824714 85.1169748,24.9824714 L74.102921,24.9824714 C71.183283,24.9824714 68.816009,22.6317752 68.816009,19.7470164 C68.816009,16.8626305 71.183283,14.7133267 74.102921,14.7133267 L82.4151865,14.711462 C82.5552597,14.711462 82.6689039,14.6096469 82.6689039,14.4712829 L82.6689039,13.771631 C82.6681488,13.0868971 82.4234927,12.5129289 81.9198335,12.01728 C81.4169293,11.521631 80.8332283,11.2807061 80.1343727,11.2807061 L71.1564766,11.2807061 C70.8755752,11.2807061 70.6479091,11.055818 70.6479091,10.7783441 L70.6479091,8.35753357 C70.6479091,8.08043262 70.8755752,7.85554451 71.1564766,7.85554451 L80.1343727,7.85517156 C81.7839134,7.85517156 83.2110738,8.43995525 84.3773433,9.59273993 L84.3773433,9.59273993 Z M101.018864,7.85554451 L90.1883025,7.85554451 C89.9074011,7.85554451 89.6801126,8.08043262 89.6801126,8.35753357 L89.6801126,24.4771258 C89.6801126,24.7545997 89.9074011,24.9794878 90.1883025,24.9794878 L92.6393939,24.9794878 C92.9199177,24.9794878 93.1475838,24.7545997 93.1475838,24.4771258 L93.1464511,11.5212581 C93.1464511,11.3828941 93.260473,11.2810791 93.4005461,11.2810791 L101.024905,11.2810791 C101.734332,11.2810791 102.322564,11.5223769 102.820937,12.01728 C103.318933,12.5159125 103.560947,13.094729 103.560947,13.786176 L103.554906,24.4748881 C103.554906,24.752362 103.782572,24.9776231 104.063096,24.9776231 L106.514187,24.9776231 C106.795088,24.9776231 107.022377,24.752362 107.022377,24.4748881 L107.022377,13.786176 C107.022377,12.1578817 106.431125,10.7470164 105.264855,9.59311288 C104.097453,8.43995525 102.668783,7.85554451 101.018864,7.85554451 L101.018864,7.85554451 Z" id="Fill-21" fill="#0076BF"></path>
                <path d="M113.841722,15.100078 L113.841722,15.0989581 C113.767779,15.17735 113.650794,15.2064669 113.545582,15.1631648 C113.444416,15.1213558 113.382613,15.0239259 113.378567,14.9197768 L113.378567,1.50282763 C113.378567,1.22509655 113.156738,1 112.883407,1 L110.49516,1 C110.221829,1 110,1.22509655 110,1.50282763 L110,24.4966459 C110,24.774377 110.221829,24.9998469 110.49516,24.9998469 L112.883407,24.9998469 C113.156738,24.9998469 113.378567,24.774377 113.378567,24.4966459 L113.378567,18.1831169 C113.383717,18.0800876 113.445152,17.9845242 113.545214,17.9430885 C113.650427,17.8997864 113.767043,17.9289034 113.840986,18.0072952 L113.841354,18.0061753 L121.663118,24.8777796 C121.759134,24.9621441 121.880165,25.0028332 121.999724,24.9998469 L125.27455,24.9998469 C125.548249,24.9998469 125.770078,24.774377 125.770078,24.4966459 C125.770078,24.3529276 125.71085,24.2230211 125.61557,24.131564 L117.16805,16.7246555 C117.120962,16.6768738 117.0919,16.6111739 117.0919,16.5383815 C117.0919,16.4670823 117.119858,16.4021291 117.165107,16.3547207 L125.845125,8.74772633 C125.940404,8.6558959 126,8.52636272 126,8.38264436 C126,8.10491329 125.777803,7.87981673 125.504104,7.87981673 L122.229646,7.87981673 C122.109719,7.87645708 121.989056,7.91714618 121.89304,8.00113743 L113.841722,15.100078 Z" id="Fill-23" fill="#0076BF"></path>
            </g>
        </g>
    </g>
</svg>