<?xml version="1.0" encoding="UTF-8"?>
<svg width="246px" height="94px" viewBox="0 0 246 94" version="1.1" xmlns="http://www.w3.org/2000/svg" xmlns:xlink="http://www.w3.org/1999/xlink">
    <!-- Generator: Sketch 46.2 (44496) - http://www.bohemiancoding.com/sketch -->
    <title>logo/logo-e-id-se-bankid</title>
    <desc>Created with Sketch.</desc>
    <defs></defs>
    <g id="Symbols" stroke="none" stroke-width="1" fill="none" fill-rule="evenodd">
        <g id="logo/logo-e-id-se-bankid">
            <rect id="Placeholder" x="0" y="0" width="246" height="96"></rect>
            <g id="bankid_vector_rgb" transform="translate(90.000000, 15.000000)" fill-rule="nonzero">
                <path d="M22.1017964,34.8554729 L25,16.2879915 C23.8582834,16.2879915 21.9041916,16.2879915 21.9041916,16.2879915 C20.4550898,16.2879915 18.5888224,15.4622742 18.0399202,13.9447396 C17.8642715,13.4314559 17.4471058,11.6684378 19.8403194,9.95005313 C20.6966068,9.34750266 21.245509,8.67800213 21.3552894,8.16471838 C21.4650699,7.62911796 21.3333333,7.16046759 20.9600798,6.80340064 C20.4331337,6.2901169 19.4011976,6 18.0838323,6 C15.8662675,6 14.3073852,7.29436769 14.1536926,8.23166844 C14.0439122,8.92348565 14.5708583,9.48140276 15.0319361,9.83846971 C16.4151697,10.8873539 16.744511,12.4048884 15.8882236,13.8331562 C15.00998,15.3060574 13.0998004,16.2656748 11.0578842,16.2879915 C11.0578842,16.2879915 9.03792415,16.2879915 7.89620758,16.2879915 C7.63273453,18.0956429 3.32934132,45.8129649 3,48 L20.1477046,48 C20.3013972,47.0180659 21.0918164,41.7736451 22.1676647,34.8554729 L22.1017964,34.8554729 Z" id="Shape" fill="#479CBE"></path>
                <path d="M44.6537985,0 L27.3122116,0 L25,15.0251163 L27.9447978,15.0251163 C29.5589832,15.0251163 31.0859154,14.2660465 31.7403149,13.172093 C31.9584481,12.8148837 32.0457013,12.5023256 32.0457013,12.212093 C32.0457013,11.5869767 31.6312483,11.1181395 31.2167953,10.8055814 C30.0825028,9.93488372 29.8425563,9.01953488 29.8425563,8.37209302 C29.8425563,8.23813953 29.8425563,8.12651163 29.8643697,8.01488372 C30.1043161,6.42976744 32.1983946,4.71069767 34.9686858,4.71069767 C36.6264979,4.71069767 37.8916703,5.11255814 38.6551364,5.84930233 C39.3313492,6.49674419 39.593109,7.41209302 39.3967891,8.37209302 C39.1568427,9.51069767 38.0443635,10.4483721 37.4117773,10.9172093 C35.7321519,12.1227907 35.9502851,13.172093 36.0593517,13.4846512 C36.4083647,14.4223256 37.7389771,15.0251163 38.7642029,15.0251163 L43.2359329,15.0251163 C43.2359329,15.0251163 43.2359329,15.0251163 43.2359329,15.0474419 C49.3436616,15.092093 52.6156592,17.972093 51.5904333,24.6697674 C50.6306473,30.8986047 45.9625975,33.5776744 40.4002017,33.6223256 L38.1970567,48 L41.4472409,48 C55.1678172,48 66.3798621,38.9804651 68.5830071,24.7367442 C71.3096717,7.05488372 60.3593867,0 44.6537985,0 Z" id="Shape" fill="#00A5C3"></path>
                <path d="M44.6537985,0 L27.3122116,0 L25,15.0251163 L27.9447978,15.0251163 C29.5589832,15.0251163 31.0859154,14.2660465 31.7403149,13.172093 C31.9584481,12.8148837 32.0457013,12.5023256 32.0457013,12.212093 C32.0457013,11.5869767 31.6312483,11.1181395 31.2167953,10.8055814 C30.0825028,9.93488372 29.8425563,9.01953488 29.8425563,8.37209302 C29.8425563,8.23813953 29.8425563,8.12651163 29.8643697,8.01488372 C30.1043161,6.42976744 32.1983946,4.71069767 34.9686858,4.71069767 C36.6264979,4.71069767 37.8916703,5.11255814 38.6551364,5.84930233 C39.3313492,6.49674419 39.593109,7.41209302 39.3967891,8.37209302 C39.1568427,9.51069767 38.0443635,10.4483721 37.4117773,10.9172093 C35.7321519,12.1227907 35.9502851,13.172093 36.0593517,13.4846512 C36.4083647,14.4223256 37.7389771,15.0251163 38.7642029,15.0251163 L43.2359329,15.0251163 C43.2359329,15.0251163 43.2359329,15.0251163 43.2359329,15.0474419 C49.3436616,15.092093 52.6156592,17.972093 51.5904333,24.6697674 C50.6306473,30.8986047 45.9625975,33.5776744 40.4002017,33.6223256 L38.1970567,48 L41.4472409,48 C55.1678172,48 66.3798621,38.9804651 68.5830071,24.7367442 C71.3096717,7.05488372 60.3593867,0 44.6537985,0 Z" id="Shape" fill="#235971"></path>
                <g id="Group" transform="translate(0.000000, 53.000000)" fill="#235971">
                    <path d="M1.89818182,0.0464285714 L8.85818182,0.0464285714 C11.8254545,0.0464285714 12.5454545,1.64821429 12.3272727,3.11071429 C12.1527273,4.29464286 11.3890909,5.17678571 10.08,5.75714286 C11.7381818,6.43035714 12.3927273,7.475 12.1527273,9.12321429 C11.8472727,11.1892857 10.1672727,12.7214286 7.96363636,12.7214286 L0.0436363636,12.7214286 L1.89818182,0.0464285714 Z M6.50181818,5.29285714 C7.85454545,5.29285714 8.48727273,4.52678571 8.61818182,3.62142857 C8.74909091,2.64642857 8.33454545,1.97321429 6.98181818,1.97321429 L5.78181818,1.97321429 L5.30181818,5.29285714 L6.50181818,5.29285714 L6.50181818,5.29285714 Z M5.76,10.7714286 C7.15636364,10.7714286 7.96363636,10.1678571 8.16,8.9375 C8.31272727,7.86964286 7.74545455,7.24285714 6.39272727,7.24285714 L5.01818182,7.24285714 L4.49454545,10.7946429 L5.76,10.7946429 L5.76,10.7714286 Z" id="Shape"></path>
                    <path d="M21.9054545,12.8142857 C20.0945455,12.9535714 19.2218182,12.7446429 18.7854545,11.9089286 C17.8254545,12.5357143 16.7563636,12.8607143 15.6218182,12.8607143 C13.5709091,12.8607143 12.8509091,11.7232143 13.0472727,10.4696429 C13.1345455,9.86607143 13.4618182,9.28571429 13.9854545,8.79821429 C15.12,7.75357143 17.9127273,7.61428571 19.0036364,6.825 C19.0909091,5.94285714 18.7636364,5.61785714 17.7381818,5.61785714 C16.5381818,5.61785714 15.5345455,6.03571429 13.8109091,7.28928571 L14.2254545,4.41071429 C15.7090909,3.27321429 17.1490909,2.73928571 18.8072727,2.73928571 C20.9236364,2.73928571 22.8,3.66785714 22.4509091,6.12857143 L22.0363636,8.91428571 C21.8836364,9.88928571 21.9272727,10.1910714 22.9527273,10.2142857 L21.9054545,12.8142857 Z M18.7636364,8.45 C17.8036364,9.1 16.0145455,8.98392857 15.8181818,10.3303571 C15.7309091,10.9571429 16.1018182,11.4214286 16.6909091,11.4214286 C17.2581818,11.4214286 17.9563636,11.1660714 18.5236364,10.7482143 C18.48,10.5160714 18.5018182,10.2839286 18.5672727,9.84285714 L18.7636364,8.45 Z" id="Shape"></path>
                    <path d="M25.2872727,2.90178571 L28.9090909,2.90178571 L28.7127273,4.17857143 C29.8690909,3.13392857 30.7418182,2.73928571 31.8763636,2.73928571 C33.9054545,2.73928571 34.8436364,4.0625 34.5163636,6.22142857 L33.5781818,12.6982143 L29.9563636,12.6982143 L30.7418182,7.33571429 C30.8945455,6.36071429 30.6109091,5.89642857 29.9127273,5.89642857 C29.3454545,5.89642857 28.8218182,6.22142857 28.32,6.94107143 L27.4909091,12.675 L23.8690909,12.675 L25.2872727,2.90178571 Z" id="Shape"></path>
                    <polygon id="Shape" points="37.3309091 0.0464285714 40.9527273 0.0464285714 40.0363636 6.26785714 43.5054545 2.90178571 47.9781818 2.90178571 43.5272727 7.08035714 47.1054545 12.6982143 42.5454545 12.6982143 39.7963636 8.17142857 39.7527273 8.17142857 39.0981818 12.6982143 35.4763636 12.6982143"></polygon>
                </g>
                <g id="Group" transform="translate(49.000000, 54.000000)" fill="#479CBE">
                    <polygon id="Shape" points="1.95604396 0.0436363636 6.15384615 0.0436363636 4.30769231 11.9345455 0.10989011 11.9345455"></polygon>
                    <path d="M8.1978022,0.0436363636 L14.1978022,0.0436363636 C18.8351648,0.0436363636 20.1758242,3.38181818 19.7362637,6.15272727 C19.3186813,8.85818182 17.1648352,11.9345455 13.0989011,11.9345455 L6.32967033,11.9345455 L8.1978022,0.0436363636 Z M12.0879121,9.09818182 C14.1318681,9.09818182 15.2527473,8.09454545 15.5824176,5.97818182 C15.8241758,4.40727273 15.3406593,2.85818182 13.0769231,2.85818182 L11.956044,2.85818182 L10.989011,9.09818182 L12.0879121,9.09818182 L12.0879121,9.09818182 Z" id="Shape"></path>
                </g>
            </g>
        </g>
    </g>
</svg>